PathFileType	4	(X/Y/Z)	C:/Users/opensim2020/Desktop/walking_exp_matlab/subject02_walking12_straight_04.trc	
DataRate	CameraRate	NumFrames	NumMarkers	Units	OrigDataRate	OrigDataStartFrame	OrigNumFrames	
100.00	100.00	8	42	mm	100.00	2071	125	
Frame#	Time	LFHD			RFHD			LBHD			RBHD			C7			T10			CLAV			STRN			RBAK			LSHO			LUPA			LELB			LFRM			LWRA			LWRB			LFIN			RSHO			RUPA			RELB			RFRM			RWRA			RWRB			RFIN			LASI			RASI			LPSI			RPSI			LTHI			LKNE			LTIB			LANK			LHEE			LTOE			RTHI			RKNE			RTIB			RANK			RHEE			RTOE			*39			*40			*41			
		X1	Y1	Z1	X2	Y2	Z2	X3	Y3	Z3	X4	Y4	Z4	X5	Y5	Z5	X6	Y6	Z6	X7	Y7	Z7	X8	Y8	Z8	X9	Y9	Z9	X10	Y10	Z10	X11	Y11	Z11	X12	Y12	Z12	X13	Y13	Z13	X14	Y14	Z14	X15	Y15	Z15	X16	Y16	Z16	X17	Y17	Z17	X18	Y18	Z18	X19	Y19	Z19	X20	Y20	Z20	X21	Y21	Z21	X22	Y22	Z22	X23	Y23	Z23	X24	Y24	Z24	X25	Y25	Z25	X26	Y26	Z26	X27	Y27	Z27	X28	Y28	Z28	X29	Y29	Z29	X30	Y30	Z30	X31	Y31	Z31	X32	Y32	Z32	X33	Y33	Z33	X34	Y34	Z34	X35	Y35	Z35	X36	Y36	Z36	X37	Y37	Z37	X38	Y38	Z38	X39	Y39	Z39	X40	Y40	Z40	X41	Y41	Z41	X42	Y42	Z42	

79	0.780	1499.90479	-313.16592	1704.84851	1359.18225	-292.43240	1680.48816	1529.92151	-185.44984	1630.74353	1391.87842	-153.10663	1605.60291	1456.02930	-118.07873	1485.75720	1454.67114	-80.25567	1204.46936	1474.89771	-258.46509	1420.34290	1466.86462	-320.23199	1253.88037	1392.75562	-70.38485	1304.80359	1639.25818	-175.63036	1459.57483	1708.58936	-101.73841	1269.21948	1703.39148	-55.24825	1137.78796	1716.63745	-3.78299	1019.85248	1679.42566	13.32099	880.30615	1719.58337	46.34233	904.72821	1701.75525	81.27910	844.48370	1274.16028	-200.15480	1450.77698	1182.20068	-208.17203	1263.81506	1146.34802	-268.45215	1130.20593	1143.31482	-368.47040	1059.80200	1175.64539	-487.29337	1008.66876	1146.77649	-460.38162	968.17505	1144.23926	-530.66187	959.76190	1591.26379	-338.76349	965.62988	1336.78259	-316.56393	928.87732	1527.70227	-117.54103	996.35052	1413.63721	-107.39410	985.42584	1669.70544	-358.96155	674.96130	1639.81238	-409.70535	480.07660	1660.64404	-396.54514	288.49869	1631.87598	-421.71613	69.61372	1583.14172	-383.16891	41.62210	1632.94019	-578.03650	32.25404	1273.32227	-156.31511	645.21790	1291.48828	-98.71792	446.29861	1291.45154	49.36122	327.26797	1324.95581	179.83221	185.74252	1386.13599	230.90556	165.53215	1315.76819	110.05986	35.56295	1423.02429	-198.77768	1767.08020	-3360.36328	2845.17725	1034.20581			 
80	0.790	1501.11621	-327.89447	1705.49622	1360.54895	-306.44498	1681.02014	1531.99915	-199.62564	1632.37891	1394.02075	-166.73093	1607.19739	1457.62830	-131.65556	1486.87061	1456.39160	-94.04910	1205.36633	1476.79504	-272.16418	1421.70837	1469.22144	-334.42200	1255.52722	1394.66895	-84.36545	1305.50159	1641.01111	-188.85945	1460.93640	1711.58191	-116.49009	1270.27942	1707.15332	-70.80277	1138.41736	1720.75659	-20.69883	1019.76526	1683.42383	-5.96175	880.19995	1723.53333	27.33093	903.52747	1706.04236	61.29767	842.78088	1275.73279	-214.17543	1451.76062	1185.54907	-219.40924	1264.30151	1149.93188	-278.75259	1129.87451	1145.96997	-378.70544	1058.73010	1177.33167	-497.25116	1007.04749	1149.06970	-469.57184	966.27527	1145.37305	-540.14795	958.02783	1595.32373	-352.84769	968.50000	1342.66638	-332.35355	929.72552	1529.74268	-131.83971	997.92212	1414.04419	-123.08538	986.20990	1671.32568	-372.91888	674.82727	1640.92419	-421.27478	479.87076	1660.57703	-404.13931	288.92392	1631.57813	-422.40564	69.64476	1583.03845	-383.55887	41.51395	1632.86951	-578.77087	31.52913	1275.76331	-175.98700	644.05518	1291.69324	-123.18612	444.28363	1291.31323	27.88277	330.30209	1325.60010	162.22742	193.19443	1387.82910	212.95193	177.43437	1317.45520	107.26869	36.54621	1424.63550	-213.56123	1768.30750	-3360.43335	2845.24414	1034.20215			 
81	0.800	1502.61157	-342.44916	1706.52832	1361.83704	-320.48267	1681.89746	1533.77332	-213.83385	1634.09729	1395.78955	-180.50357	1608.92944	1459.01013	-145.07831	1487.99780	1458.24634	-107.65757	1206.63843	1478.48218	-285.80267	1423.20337	1471.27136	-348.38779	1257.13367	1396.43335	-98.18650	1306.61560	1642.46802	-202.03825	1462.65222	1714.32324	-131.37555	1271.66919	1710.91870	-86.91842	1139.21619	1724.93591	-38.82148	1019.83484	1687.48572	-25.46125	879.57556	1728.10254	7.48437	902.83661	1711.01233	39.85713	840.99762	1277.44507	-228.12401	1453.23474	1188.29907	-231.51274	1264.87646	1153.02368	-289.69931	1130.28699	1148.94580	-388.17651	1057.92029	1179.31274	-506.45096	1005.08844	1151.54199	-478.27164	964.31848	1146.73474	-548.71777	955.72473	1598.92212	-366.56592	971.71204	1348.07922	-347.19998	930.64380	1531.44739	-146.07004	999.36218	1414.85876	-137.85953	987.01813	1672.54297	-386.66028	674.50903	1642.03003	-431.42212	479.93515	1660.06763	-408.58392	289.29037	1630.99451	-422.58893	69.83243	1582.74292	-383.71783	41.54406	1632.25183	-579.41479	31.15118	1278.08008	-196.25421	642.28235	1291.42981	-148.11807	442.26657	1291.83606	5.07383	332.79083	1326.14709	143.08614	200.18175	1389.02173	194.07018	188.71844	1319.91956	100.39281	39.96129	1426.28601	-228.33305	1769.91882	-3360.38184	2845.17236	1034.19751			 
82	0.810	1503.69226	-356.90833	1707.38062	1362.90771	-334.51392	1683.05237	1535.28455	-227.98549	1635.95605	1397.32263	-194.11028	1611.01404	1460.37146	-158.46634	1489.31494	1460.07593	-121.10314	1208.29016	1480.04614	-299.60623	1424.98120	1472.96350	-362.12451	1258.82617	1397.32886	-112.10806	1308.38599	1643.68274	-215.46617	1464.63196	1716.72473	-146.71359	1273.11780	1714.91223	-103.25530	1140.34192	1728.89319	-57.48785	1019.79907	1692.13330	-47.33920	879.58215	1732.67578	-13.49299	902.07458	1716.15039	16.62827	838.84906	1279.43420	-240.83163	1455.13953	1190.68262	-243.92664	1266.07361	1156.42285	-299.82059	1130.93909	1151.76831	-397.86163	1057.11438	1181.28198	-515.50061	1002.57867	1154.08801	-486.34155	962.16156	1148.52795	-556.12616	952.66534	1602.17529	-379.73764	974.92798	1353.00659	-361.44308	931.88373	1532.93555	-159.89517	1000.60681	1416.01733	-151.86238	988.09229	1673.64709	-399.56143	674.89343	1643.16321	-439.85925	479.84906	1658.81201	-410.90033	289.43866	1630.73999	-422.74081	69.79119	1582.28589	-383.65503	41.83731	1632.47217	-579.47778	30.96129	1280.06750	-216.47665	639.81909	1291.63269	-173.45984	439.99954	1292.40808	-18.89079	334.56494	1327.37122	123.52712	207.70088	1390.75952	174.84889	199.65935	1322.96631	89.02097	45.91392	1427.71008	-243.03418	1771.70972	-3357.44800	2845.81641	1034.37781			 
83	0.820	1504.63928	-371.43045	1708.68420	1363.90588	-348.49570	1684.53345	1536.42773	-242.34183	1637.99329	1398.72192	-207.77275	1613.30310	1461.88708	-172.11801	1491.04858	1461.83887	-134.39642	1210.27319	1481.25488	-313.20029	1426.92041	1474.28308	-375.60226	1260.63525	1399.25659	-124.70777	1310.99646	1644.77490	-228.87848	1466.84863	1719.28210	-162.12108	1274.97717	1718.71082	-120.24828	1141.59009	1733.44128	-77.04443	1020.06049	1696.88867	-69.21521	879.60144	1737.16797	-35.66314	901.36145	1722.79456	-7.40448	837.49365	1280.87793	-254.06187	1457.05823	1193.09717	-255.68622	1267.43420	1159.47461	-310.43848	1131.79529	1154.59119	-406.99344	1056.32104	1183.57983	-523.63428	999.81506	1156.68604	-493.83377	959.77460	1150.32202	-563.29913	949.14996	1605.21338	-392.37219	978.16602	1357.06055	-375.12268	933.33374	1534.38794	-173.20569	1001.70886	1417.57678	-165.16945	989.51025	1674.92163	-411.70337	676.56299	1644.54236	-446.47745	479.25925	1656.89929	-411.60373	289.39658	1630.47815	-422.52985	69.70394	1582.20996	-383.58368	41.83609	1632.31128	-579.51154	30.79160	1282.08569	-237.16536	637.25079	1291.93530	-199.21510	438.07736	1292.46008	-43.41819	336.24982	1329.70496	103.09754	215.22557	1393.43567	154.06036	210.06180	1323.09753	73.95483	53.15337	1428.95386	-257.68796	1773.59827	-3357.44336	2845.84106	1034.28552			 
84	0.830	1505.19299	-386.01736	1710.08887	1364.79077	-362.45627	1686.22363	1537.58875	-256.47675	1640.26233	1399.93933	-221.42551	1615.82849	1463.36243	-185.42613	1493.28638	1463.48010	-147.54973	1212.53479	1482.29834	-326.67963	1429.04602	1475.28247	-388.85330	1262.56445	1400.15601	-138.05252	1313.34253	1645.82129	-242.41974	1469.25281	1721.91650	-177.67604	1277.11121	1722.18005	-137.89386	1142.85278	1737.49365	-97.12686	1020.38611	1701.57861	-92.99426	879.82916	1741.83752	-58.52309	901.05121	1729.09302	-33.05626	835.99396	1282.45349	-266.40457	1459.14282	1195.40747	-267.13281	1269.47278	1162.68762	-320.32086	1132.76233	1157.41663	-415.44070	1055.21094	1185.74939	-531.51807	996.50085	1159.17761	-500.74777	957.14215	1152.35046	-569.60498	944.82086	1607.79871	-404.84482	980.83691	1360.15491	-388.26270	934.95734	1535.91858	-186.01082	1003.06140	1419.44165	-177.80142	991.44330	1676.09460	-423.35428	678.53821	1645.81836	-451.66202	478.84146	1654.98718	-411.83987	289.58093	1630.32849	-422.50854	69.72388	1582.10474	-383.50739	41.67937	1632.34827	-579.43591	30.72623	1283.90308	-257.90604	635.17841	1292.38147	-224.94234	436.81424	1293.46167	-68.32992	338.06686	1333.31604	81.10680	222.37212	1397.72888	131.38676	217.96620	1322.36267	55.27449	60.43849	1430.12244	-272.32611	1775.82129						 
85	0.840	1506.08765	-400.34555	1711.99670	1365.36206	-376.29605	1688.03149	1538.86511	-270.36334	1642.75623	1401.07605	-234.96165	1618.38953	1464.83899	-198.96628	1495.89392	1464.98657	-160.45700	1215.03430	1483.12341	-340.01309	1431.37524	1476.07239	-401.84763	1264.62415	1401.34985	-150.69287	1316.00085	1646.80188	-256.33774	1471.92041	1724.05481	-193.99695	1279.12036	1726.16589	-155.61328	1144.61279	1741.73242	-117.85688	1020.96436	1706.59143	-116.96633	880.65820	1746.53760	-82.18257	900.94165	1735.80823	-59.89597	834.77557	1283.42383	-279.17841	1461.22925	1197.07813	-279.01962	1271.08594	1165.68750	-330.11337	1133.72742	1160.00598	-423.77725	1054.21667	1187.98218	-538.98767	993.00708	1161.58252	-507.19788	954.46191	1154.63965	-575.73511	940.38037	1609.94116	-417.00418	983.02094	1362.17737	-400.84628	936.78314	1537.61841	-198.41722	1004.85730	1421.63513	-189.84148	993.96722	1676.86536	-434.49777	679.91748	1646.86194	-456.12833	478.94983	1654.04846	-412.31857	290.08673	1630.23828	-422.38348	69.70068	1582.33545	-383.25970	41.54129	1632.40723	-579.27026	30.76952	1285.63416	-278.26764	634.82446	1292.79321	-250.95183	437.00333	1295.59705	-93.64922	340.89471	1337.87073	57.84005	228.94576	1403.25537	107.82591	223.31412	1322.25122	33.39590	67.65231	1431.02502	-286.98303	1778.10938	-3357.00684	2845.98853	1034.45483			 
86	0.850	1506.41125	-414.58411	1713.72534	1365.81750	-390.13467	1690.00378	1539.75122	-284.46991	1645.30078	1401.96277	-248.55930	1621.07263	1466.22180	-212.44080	1498.68433	1466.57043	-173.05801	1217.76465	1483.75940	-353.17023	1433.79883	1476.67578	-414.69641	1266.88513	1402.50256	-163.31450	1318.91858	1647.82361	-270.46005	1474.75464	1726.33606	-210.45540	1281.36340	1729.91125	-174.03023	1146.36841	1745.88318	-139.14961	1021.67120	1711.38672	-142.01848	881.27216	1751.37244	-106.31593	901.26910	1742.81335	-87.81020	834.08380	1284.51367	-291.35483	1463.49585	1198.73547	-290.33948	1272.87720	1168.48303	-340.21097	1134.79041	1162.43835	-431.91113	1053.07068	1190.25769	-546.07068	989.31470	1163.90002	-513.19763	951.51050	1156.98950	-581.34961	935.24219	1611.54480	-429.03677	984.91779	1363.14575	-412.98132	939.16034	1539.47412	-211.02158	1007.15515	1423.94873	-201.33784	996.87347	1677.38477	-445.00308	680.95831	1647.81653	-460.69455	479.23108	1654.73767	-413.73923	290.88571	1630.15393	-422.21585	69.84772	1581.92554	-383.16876	41.44443	1632.49426	-579.08508	30.71869	1287.32214	-297.73038	635.84814	1293.78516	-276.80249	438.17770	1298.54724	-119.28110	344.26846	1342.71289	33.26097	234.16992	1408.81458	82.71852	227.03668	1321.59033	9.32666	73.66368	1431.83081	-301.36053	1780.51526						 
